# Blender v2.76 (sub 0) OBJ File: 'bark3.blend'
# www.blender.org
mtllib bigDoor.mtl
o Cube
v 1.175201 -0.078982 6.170947
v 1.519637 0.324253 6.170946
v 1.175201 -0.078982 -7.640090
v 1.519637 0.324253 -7.640090
v 3.175201 -0.078982 6.170947
v 2.830766 0.324253 6.170946
v 3.175201 -0.078982 -7.640090
v 2.830766 0.324253 -7.640090
v 1.519637 6.048514 6.170946
v 1.519637 6.048514 -7.640090
v 2.830766 6.048514 -7.640090
v 2.830766 6.048514 6.170946
v 1.228476 6.441638 6.170946
v 1.228476 6.441638 -7.640090
v 3.121927 6.441638 -7.640090
v 3.121927 6.441638 6.170946
v 1.519636 0.324252 1.567271
v 1.519636 0.324252 -3.036414
v 1.175201 -0.078982 -2.806756
v 1.175201 -0.078982 1.300903
v 2.830767 0.324252 -3.036414
v 2.830767 0.324252 1.567271
v 3.175201 -0.078982 1.300903
v 3.175201 -0.078982 -2.806756
v 1.519637 6.048514 1.567267
v 1.519637 6.048514 -3.036411
v 2.830766 6.048514 -3.036411
v 2.830766 6.048514 1.567268
v 1.228476 6.441638 1.567267
v 1.228476 6.441638 -3.036411
v 3.121927 6.441638 -3.036411
v 3.121927 6.441638 1.567268
v 1.519637 3.828074 -7.640090
v 2.830766 3.828074 -7.640090
v 2.830766 3.828074 6.170946
v 1.519637 3.828074 6.170946
v 1.519701 3.827787 -3.036195
v 1.519701 3.827787 1.567030
v 2.830702 3.827787 1.567030
v 2.830702 3.827787 -3.036194
v 1.519637 6.048514 0.416348
v 1.519637 6.048514 -0.734572
v 1.519637 6.048514 -1.885492
v 2.830766 6.048514 -1.885491
v 2.830766 6.048514 -0.734571
v 2.830766 6.048514 0.416348
v 1.228476 6.441638 0.416348
v 1.228476 6.441638 -0.734572
v 1.228476 6.441638 -1.885492
v 3.121927 6.441638 -1.885491
v 3.121927 6.441638 -0.734571
v 3.121927 6.441638 0.416348
v 2.830767 5.003626 -1.885493
v 2.830767 5.003626 -0.734571
v 2.830767 5.003626 0.416350
v 1.519636 5.003626 0.416350
v 1.519636 5.003626 -0.734572
v 1.519636 5.003626 -1.885493
v 2.830766 6.048514 0.991808
v 3.121927 6.441638 0.991808
v 2.830767 4.723251 0.991811
v 1.519637 6.048514 0.991808
v 1.228476 6.441638 0.991808
v 1.519636 4.723251 0.991810
v 1.519637 6.048514 -2.460951
v 1.228476 6.441638 -2.460951
v 1.519636 4.723251 -2.460954
v 2.830766 6.048514 -2.460951
v 3.121927 6.441638 -2.460951
v 2.830767 4.723251 -2.460953
v 2.830766 6.048514 1.279538
v 3.121927 6.441638 1.279538
v 2.830767 4.438000 1.279541
v 1.519637 6.048514 1.279537
v 1.228476 6.441638 1.279537
v 1.519636 4.438000 1.279541
v 1.519637 6.048514 -2.748681
v 1.228476 6.441638 -2.748681
v 1.519636 4.438000 -2.748684
v 2.830766 6.048514 -2.748681
v 3.121927 6.441638 -2.748681
v 2.830767 4.438000 -2.748683
v 1.956680 0.324253 -7.640090
v 2.393723 0.324253 -7.640090
v 2.508535 -0.078982 -7.640090
v 1.841868 -0.078982 -7.640090
v 2.393723 0.324253 6.170946
v 1.956680 0.324253 6.170946
v 1.841868 -0.078982 6.170947
v 2.508535 -0.078982 6.170947
v 1.956680 6.048514 -7.640090
v 2.393723 6.048514 -7.640090
v 2.393723 6.048514 6.170946
v 1.956680 6.048514 6.170946
v 1.859626 6.441638 -7.640090
v 2.490777 6.441638 -7.640090
v 2.490777 6.441638 6.170946
v 1.859626 6.441638 6.170946
v 2.490777 6.441638 1.567268
v 1.859626 6.441638 1.567267
v 2.490777 6.441638 -3.036411
v 1.859626 6.441638 -3.036411
v 1.875851 -0.078982 1.093102
v 2.474552 -0.078982 1.093102
v 1.875851 -0.078982 -2.595788
v 2.474552 -0.078982 -2.595788
v 2.393723 3.828074 6.170946
v 1.956680 3.828074 6.170946
v 1.956680 3.828074 -7.640090
v 2.393723 3.828074 -7.640090
v 1.978957 0.324252 -2.802033
v 2.371445 0.324252 -2.802033
v 1.978977 3.611805 -2.801836
v 2.371426 3.611805 -2.801836
v 1.978957 0.324252 1.332314
v 2.371445 0.324252 1.332314
v 1.978977 3.611805 1.332098
v 2.371426 3.611805 1.332098
v 2.371445 4.787644 -1.768446
v 1.978957 4.787644 -1.768447
v 2.371445 4.787644 -0.734860
v 1.978957 4.787644 -0.734860
v 2.371445 4.787644 0.298727
v 1.978957 4.787644 0.298727
v 2.490777 6.441638 0.416348
v 1.859626 6.441638 0.416348
v 2.490777 6.441638 -0.734572
v 1.859626 6.441638 -0.734572
v 2.490777 6.441638 -1.885491
v 1.859626 6.441638 -1.885491
v 2.490777 6.441638 0.991808
v 1.859626 6.441638 0.991808
v 2.371445 4.507268 0.815521
v 1.978957 4.507268 0.815521
v 2.371445 4.507268 -2.285240
v 1.978957 4.507268 -2.285240
v 2.490777 6.441638 -2.460951
v 1.859626 6.441638 -2.460951
v 2.490777 6.441638 1.279538
v 1.859626 6.441638 1.279538
v 2.371445 4.222018 1.073917
v 1.978957 4.222018 1.073917
v 2.371445 4.222018 -2.543636
v 1.978957 4.222018 -2.543637
v 2.490777 6.441638 -2.748681
v 1.859626 6.441638 -2.748681
vt 0.361234 0.244158
vt 0.361234 0.000000
vt 0.385045 0.000000
vt 0.902238 0.367206
vt 0.881899 0.345821
vt 0.921266 0.345821
vt 0.408856 0.488316
vt 0.408856 0.732473
vt 0.385045 0.732473
vt 0.979661 0.324435
vt 1.000000 0.345821
vt 0.960633 0.345821
vt 0.039367 1.000000
vt 0.000000 1.000000
vt 0.000000 0.743662
vt 0.979661 0.553028
vt 0.979661 0.670786
vt 0.953853 0.670786
vt 0.902238 0.020849
vt 0.885045 0.000000
vt 0.922315 0.000000
vt 0.615758 0.000000
vt 0.746876 0.000000
vt 0.746876 0.244158
vt 0.154332 0.732473
vt 0.023214 0.732473
vt 0.023214 0.488316
vt 0.902238 0.138610
vt 0.928046 0.020849
vt 0.807360 0.732473
vt 0.770090 0.732473
vt 0.770090 0.488316
vt 0.996854 0.691635
vt 0.959584 0.691635
vt 0.770090 0.000000
vt 0.770090 0.244158
vt 0.000000 0.732473
vt 0.000000 0.488316
vt 0.023214 0.244158
vt 0.000000 0.244158
vt 0.000000 0.000000
vt 0.000000 0.473056
vt 0.746876 0.488316
vt 0.770090 0.259418
vt 0.807360 0.244158
vt 0.807360 0.488316
vt 0.770090 0.473056
vt 0.154332 0.000000
vt 0.154349 0.244169
vt 0.118316 0.473056
vt 0.154349 0.488303
vt 0.615758 0.732473
vt 0.615741 0.488303
vt 0.651774 0.259418
vt 0.615741 0.244169
vt 0.960633 0.960941
vt 0.958626 0.691635
vt 1.000000 0.702656
vt 0.408856 0.244158
vt 0.385045 0.256338
vt 0.361234 0.488316
vt 0.385045 0.474189
vt 0.902238 0.324435
vt 0.928046 0.138610
vt 0.361234 0.732473
vt 0.408856 0.000000
vt 0.979661 0.367206
vt 0.953853 0.553028
vt 0.188738 0.928257
vt 0.188739 0.753902
vt 0.215863 0.753951
vt 0.159474 0.732474
vt 0.165563 0.753902
vt 0.138440 0.753951
vt 0.306839 0.791287
vt 0.333959 0.779742
vt 0.333963 0.965548
vt 0.277575 0.987116
vt 0.236202 0.987036
vt 0.256540 0.965548
vt 0.283664 0.759024
vt 0.283665 0.791287
vt 0.256544 0.779742
vt 0.381425 0.741793
vt 0.381425 0.769201
vt 0.354302 0.762993
vt 0.381425 0.824018
vt 0.354302 0.824033
vt 0.381425 0.878834
vt 0.354302 0.885072
vt 0.685175 0.427276
vt 0.746876 0.427276
vt 0.746876 0.457796
vt 0.685175 0.366237
vt 0.746876 0.366237
vt 0.685175 0.305197
vt 0.746876 0.305197
vt 0.084915 0.305197
vt 0.023214 0.305197
vt 0.023214 0.274678
vt 0.084915 0.366237
vt 0.023214 0.366237
vt 0.084915 0.427276
vt 0.023214 0.427276
vt 0.807360 0.305197
vt 0.770090 0.305197
vt 0.770090 0.274678
vt 0.807360 0.366237
vt 0.770090 0.366237
vt 0.807360 0.427276
vt 0.770090 0.427276
vt 0.770090 0.457796
vt 0.000000 0.305197
vt 0.000000 0.274678
vt 0.000000 0.366237
vt 0.000000 0.427276
vt 0.807360 0.274678
vt 0.668619 0.457796
vt 0.746876 0.473056
vt 0.381425 0.906243
vt 0.354302 0.915592
vt 0.101471 0.457796
vt 0.023214 0.457796
vt 0.000000 0.457796
vt 0.000000 0.259418
vt 0.101471 0.274677
vt 0.023214 0.259418
vt 0.165563 0.975640
vt 0.138440 0.987132
vt 0.138440 0.972064
vt 0.668619 0.274677
vt 0.746876 0.274678
vt 0.807360 0.457796
vt 0.651774 0.473056
vt 0.807360 0.259418
vt 0.283664 0.743996
vt 0.256540 0.747491
vt 0.023214 0.473056
vt 0.165563 0.960566
vt 0.138444 0.939761
vt 0.118316 0.259418
vt 0.746876 0.259418
vt 0.807360 0.473056
vt 0.881899 0.473056
vt 0.844629 0.473056
vt 0.844629 0.457796
vt 0.215859 0.939761
vt 0.215863 0.972064
vt 0.188739 0.960566
vt 0.165564 0.928257
vt 0.333963 0.747491
vt 0.306840 0.759024
vt 0.306840 0.743996
vt 0.881899 0.259418
vt 0.844629 0.259418
vt 0.844629 0.244158
vt 0.881899 0.457796
vt 0.844629 0.427276
vt 0.215863 0.987132
vt 0.188739 0.975640
vt 0.431725 0.885072
vt 0.431725 0.915592
vt 0.404602 0.906243
vt 0.404602 0.878834
vt 0.881899 0.274678
vt 0.844629 0.274678
vt 0.881899 0.427276
vt 0.844629 0.366237
vt 0.881899 0.366237
vt 0.844629 0.305197
vt 0.881899 0.305197
vt 0.431725 0.824033
vt 0.404602 0.824018
vt 0.404602 0.769201
vt 0.431725 0.762993
vt 0.404602 0.741793
vt 0.312929 0.987116
vt 0.306840 0.965639
vt 0.283664 0.965639
vt 0.194828 0.732474
vt 0.928046 0.367206
vt 0.928046 0.553028
vt 0.902238 0.553028
vt 0.953853 0.367206
vt 0.953853 0.324435
vt 0.953853 0.138610
vt 0.979661 0.138610
vt 0.928046 0.324435
vt 0.881899 0.702656
vt 0.923273 0.691635
vt 0.921266 0.960941
vt 0.881899 0.488316
vt 0.844629 0.488316
vt 0.881899 0.244158
vt 0.844629 0.000000
vt 0.807360 0.000000
vt 0.902238 0.670786
vt 0.928046 0.670786
vt 0.922315 0.691635
vt 0.881899 0.732473
vt 0.844629 0.732473
vt 0.953853 0.020849
vt 0.979661 0.020849
vt 0.959584 0.000000
vt 0.118101 0.743662
vt 0.118101 1.000000
vt 0.078734 1.000000
vt 0.041374 0.732474
vt 0.023214 0.000000
vt 0.746876 0.732473
vt 1.000000 0.960941
vt 0.118101 0.732518
vt 0.354302 0.732474
vt 0.256540 0.732474
vt 0.333963 0.732474
vt 0.431725 0.732474
vt 0.354302 0.987036
vt 0.236201 0.732518
vt 0.881899 0.960941
vt 0.881899 0.000000
vt 0.885045 0.691635
vt 0.996854 0.000000
vt 0.076727 0.732474
vn -0.760400 0.649500 -0.000000
vn 0.000000 0.000000 -1.000000
vn 0.760400 0.649500 0.000000
vn 0.000000 0.000000 1.000000
vn 0.000000 -1.000000 0.000000
vn 1.000000 0.000000 0.000000
vn -1.000000 0.000000 0.000000
vn 0.000000 1.000000 0.000000
vn 0.803600 -0.595200 0.000000
vn -0.803600 -0.595200 0.000000
vn -1.000000 -0.000000 0.000200
vn 1.000000 -0.000000 -0.000200
vn 0.454500 -0.000100 0.890700
vn -0.394600 0.496400 0.773200
vn 0.455400 -0.000100 -0.890300
vn -0.213900 0.659000 -0.721100
vn -0.547500 -0.326100 -0.770600
vn -0.471600 -0.775100 0.420500
vn -0.425500 -0.904900 0.000000
vn -0.508700 -0.774000 -0.377100
vn -0.516500 -0.608100 0.602800
vn -0.543500 -0.563500 -0.622100
vn -0.517200 -0.364800 0.774200
vn 0.517200 -0.364800 0.774200
vn 0.000000 -0.389700 0.920900
vn 0.543500 -0.563500 -0.622100
vn 0.000000 -0.671400 -0.741100
vn 0.516500 -0.608100 0.602800
vn 0.000000 -0.671400 0.741100
vn 0.508700 -0.774000 -0.377100
vn 0.000000 -0.879000 -0.476900
vn 0.425500 -0.904900 0.000000
vn 0.471600 -0.775100 0.420500
vn 0.000000 -0.879000 0.476900
vn 0.547500 -0.326100 -0.770600
vn 0.000000 -0.389700 -0.921000
vn 0.382800 0.541800 -0.748300
vn 0.000000 0.510200 -0.860000
vn -0.455400 -0.000100 -0.890300
vn 0.000000 -0.000100 -1.000000
vn 0.394600 0.496400 0.773200
vn 0.000000 0.455400 0.890300
vn -0.454500 -0.000100 0.890700
vn 0.000000 -0.000100 1.000000
vn 0.454500 -0.000000 0.890700
vn -0.226100 0.620700 0.750800
vn -0.382800 0.541800 -0.748300
vn -0.517900 -0.364600 -0.773800
vn -0.508300 -0.774200 0.377200
vn -0.472000 -0.774900 -0.420400
vn -0.542900 -0.563800 0.622400
vn 1.000000 -0.000000 0.000200
vn -0.517100 -0.607800 -0.602600
vn -0.546900 -0.326300 0.771000
vn -1.000000 -0.000000 -0.000200
vn 0.546900 -0.326300 0.771000
vn 0.517100 -0.607800 -0.602600
vn 0.542900 -0.563800 0.622400
vn 0.472000 -0.774900 -0.420400
vn 0.508300 -0.774200 0.377200
vn 0.517900 -0.364600 -0.773800
vn 0.213900 0.659000 -0.721100
vn 0.226100 0.620700 0.750800
vn -0.454500 -0.000000 0.890700
usemtl None
s off
f 18/1/1 4/2/1 3/3/1
f 8/4/2 7/5/2 85/6/2
f 22/7/3 6/8/3 5/9/3
f 2/10/4 1/11/4 89/12/4
f 85/13/5 7/14/5 24/15/5
f 33/16/2 10/17/2 91/18/2
f 12/19/4 16/20/4 97/21/4
f 34/22/6 11/23/6 27/24/6
f 36/25/7 9/26/7 25/27/7
f 35/28/4 12/19/4 93/29/4
f 95/30/8 14/31/8 30/32/8
f 10/17/2 14/33/2 95/34/2
f 11/23/9 15/35/9 31/36/9
f 9/26/10 13/37/10 29/38/10
f 26/39/10 30/40/10 14/41/10
f 25/27/10 29/38/10 75/42/10
f 28/43/9 32/32/9 16/31/9
f 27/24/9 31/36/9 81/44/9
f 100/45/8 29/36/8 13/35/8
f 102/46/8 30/32/8 78/47/8
f 33/48/7 37/49/7 26/39/7
f 76/50/11 38/51/11 25/27/11
f 35/52/6 39/53/6 28/43/6
f 82/54/12 40/55/12 27/24/12
f 90/56/5 104/57/5 23/58/5
f 21/59/3 24/60/3 7/3/3
f 17/61/1 20/62/1 1/9/1
f 22/7/6 39/53/6 35/52/6
f 18/1/7 37/49/7 33/48/7
f 6/63/4 35/28/4 107/64/4
f 17/61/7 2/65/7 36/25/7
f 8/66/6 34/22/6 40/55/6
f 4/67/2 33/16/2 109/68/2
f 114/69/13 112/70/13 21/71/13
f 105/72/14 111/73/14 18/74/14
f 118/75/15 39/76/15 22/77/15
f 103/78/16 20/79/16 17/80/16
f 142/81/17 117/82/17 38/83/17
f 136/84/18 120/85/18 58/86/18
f 120/85/19 122/87/19 57/88/19
f 124/89/19 56/90/19 57/88/19
f 55/91/6 46/92/6 59/93/6
f 54/94/6 45/95/6 46/92/6
f 54/94/6 53/96/6 44/97/6
f 58/98/7 43/99/7 65/100/7
f 57/101/7 42/102/7 43/99/7
f 57/101/7 56/103/7 41/104/7
f 126/105/8 47/106/8 63/107/8
f 128/108/8 48/109/8 47/106/8
f 130/110/8 49/111/8 48/109/8
f 46/92/9 52/111/9 60/112/9
f 45/95/9 51/109/9 52/111/9
f 44/97/9 50/106/9 51/109/9
f 43/99/10 49/113/10 66/114/10
f 42/102/10 48/115/10 49/113/10
f 41/104/10 47/116/10 48/115/10
f 59/93/9 60/112/9 72/47/9
f 132/117/8 63/107/8 75/44/8
f 61/118/6 59/93/6 71/119/6
f 134/120/20 64/121/20 56/90/20
f 56/103/7 64/122/7 62/123/7
f 62/123/10 63/124/10 47/116/10
f 65/100/10 66/114/10 78/125/10
f 67/126/7 65/100/7 77/127/7
f 136/128/21 67/129/21 79/130/21
f 53/96/6 70/131/6 68/132/6
f 138/133/8 66/112/8 49/111/8
f 68/132/9 69/107/9 50/106/9
f 73/134/6 71/119/6 28/43/6
f 140/135/8 75/44/8 29/36/8
f 71/119/9 72/47/9 32/32/9
f 134/136/22 142/81/22 76/137/22
f 64/122/7 76/50/7 74/138/7
f 74/138/10 75/42/10 63/124/10
f 144/139/23 79/130/23 37/140/23
f 79/141/7 77/127/7 26/39/7
f 77/127/10 78/125/10 30/40/10
f 70/131/6 82/54/6 80/142/6
f 146/143/8 78/47/8 66/112/8
f 80/142/9 81/44/9 69/107/9
f 81/144/8 145/145/8 137/146/8
f 145/145/8 146/143/8 138/133/8
f 40/147/24 82/148/24 143/149/24
f 143/149/25 144/139/25 113/150/25
f 73/151/26 141/152/26 133/153/26
f 133/153/27 141/152/27 142/81/27
f 72/154/8 139/155/8 99/156/8
f 139/155/8 140/135/8 100/45/8
f 69/157/8 137/146/8 129/158/8
f 137/146/8 138/133/8 130/110/8
f 82/148/28 70/159/28 135/160/28
f 135/160/29 136/128/29 144/139/29
f 55/161/30 61/162/30 133/163/30
f 123/164/31 133/163/31 134/120/31
f 60/165/8 131/166/8 139/155/8
f 131/166/8 132/117/8 140/135/8
f 50/167/8 129/158/8 127/168/8
f 127/168/8 129/158/8 130/110/8
f 51/169/8 127/168/8 125/170/8
f 127/168/8 128/108/8 126/105/8
f 52/171/8 125/170/8 131/166/8
f 125/170/8 126/105/8 132/117/8
f 54/172/32 55/161/32 123/164/32
f 121/173/5 123/164/5 124/89/5
f 54/172/32 121/173/32 119/174/32
f 119/174/5 121/173/5 122/87/5
f 53/175/33 119/174/33 135/176/33
f 119/174/34 120/85/34 136/84/34
f 39/76/35 118/75/35 141/152/35
f 141/152/36 118/75/36 117/82/36
f 104/177/37 116/178/37 22/77/37
f 104/177/38 103/78/38 115/179/38
f 117/82/39 115/179/39 17/80/39
f 118/75/40 116/178/40 115/179/40
f 21/71/41 112/70/41 106/180/41
f 112/70/42 111/73/42 105/72/42
f 18/74/43 111/73/43 113/150/43
f 111/73/44 112/70/44 114/69/44
f 84/181/2 110/182/2 34/183/2
f 83/184/2 109/68/2 110/182/2
f 88/185/4 108/186/4 36/187/4
f 87/188/4 107/64/4 108/186/4
f 20/189/5 103/190/5 89/191/5
f 103/190/5 104/57/5 90/56/5
f 31/192/8 101/193/8 145/145/8
f 101/193/8 102/46/8 146/143/8
f 32/194/8 99/156/8 97/195/8
f 99/156/8 100/45/8 98/196/8
f 11/197/2 92/198/2 96/199/2
f 91/18/2 95/34/2 96/199/2
f 15/200/8 96/201/8 101/193/8
f 96/201/8 95/30/8 102/46/8
f 108/186/4 94/202/4 9/203/4
f 107/64/4 93/29/4 94/202/4
f 9/203/4 94/202/4 98/204/4
f 94/202/4 93/29/4 97/21/4
f 110/182/2 92/198/2 11/197/2
f 109/68/2 91/18/2 92/198/2
f 19/205/5 3/206/5 86/207/5
f 86/207/5 85/13/5 106/208/5
f 6/63/4 87/188/4 90/6/4
f 88/185/4 89/12/4 90/6/4
f 4/67/2 83/184/2 86/12/2
f 84/181/2 85/6/2 86/12/2
f 19/60/1 18/1/1 3/3/1
f 84/181/2 8/4/2 85/6/2
f 23/62/3 22/7/3 5/9/3
f 88/185/4 2/10/4 89/12/4
f 106/208/5 85/13/5 24/15/5
f 109/68/2 33/16/2 91/18/2
f 93/29/4 12/19/4 97/21/4
f 40/55/6 34/22/6 27/24/6
f 38/51/7 36/25/7 25/27/7
f 107/64/4 35/28/4 93/29/4
f 102/46/8 95/30/8 30/32/8
f 91/18/2 10/17/2 95/34/2
f 27/24/9 11/23/9 31/36/9
f 25/27/10 9/26/10 29/38/10
f 10/209/10 26/39/10 14/41/10
f 74/138/10 25/27/10 75/42/10
f 12/210/9 28/43/9 16/31/9
f 80/142/9 27/24/9 81/44/9
f 98/196/8 100/45/8 13/35/8
f 146/143/8 102/46/8 78/47/8
f 10/209/7 33/48/7 26/39/7
f 74/138/7 76/50/7 25/27/7
f 12/210/6 35/52/6 28/43/6
f 80/142/6 82/54/6 27/24/6
f 5/211/5 90/56/5 23/58/5
f 8/66/3 21/59/3 7/3/3
f 2/65/1 17/61/1 1/9/1
f 6/8/6 22/7/6 35/52/6
f 4/2/7 18/1/7 33/48/7
f 87/188/4 6/63/4 107/64/4
f 38/51/7 17/61/7 36/25/7
f 21/59/6 8/66/6 40/55/6
f 83/184/2 4/67/2 109/68/2
f 40/147/45 114/69/45 21/71/45
f 19/212/46 105/72/46 18/74/46
f 116/178/15 118/75/15 22/77/15
f 115/179/47 103/78/47 17/80/47
f 76/137/48 142/81/48 38/83/48
f 67/213/49 136/84/49 58/86/49
f 58/86/19 120/85/19 57/88/19
f 122/87/19 124/89/19 57/88/19
f 61/118/6 55/91/6 59/93/6
f 55/91/6 54/94/6 46/92/6
f 45/95/6 54/94/6 44/97/6
f 67/126/7 58/98/7 65/100/7
f 58/98/7 57/101/7 43/99/7
f 42/102/7 57/101/7 41/104/7
f 132/117/8 126/105/8 63/107/8
f 126/105/8 128/108/8 47/106/8
f 128/108/8 130/110/8 48/109/8
f 59/93/9 46/92/9 60/112/9
f 46/92/9 45/95/9 52/111/9
f 45/95/9 44/97/9 51/109/9
f 65/100/10 43/99/10 66/114/10
f 43/99/10 42/102/10 49/113/10
f 42/102/10 41/104/10 48/115/10
f 71/119/9 59/93/9 72/47/9
f 140/135/8 132/117/8 75/44/8
f 73/134/6 61/118/6 71/119/6
f 124/89/50 134/120/50 56/90/50
f 41/104/7 56/103/7 62/123/7
f 41/104/10 62/123/10 47/116/10
f 77/127/10 65/100/10 78/125/10
f 79/141/7 67/126/7 77/127/7
f 144/139/51 136/128/51 79/130/51
f 44/97/6 53/96/6 68/132/6
f 130/110/8 138/133/8 49/111/8
f 44/97/9 68/132/9 50/106/9
f 39/53/52 73/134/52 28/43/52
f 100/45/8 140/135/8 29/36/8
f 28/43/9 71/119/9 32/32/9
f 64/214/53 134/136/53 76/137/53
f 62/123/7 64/122/7 74/138/7
f 62/123/10 74/138/10 63/124/10
f 113/150/54 144/139/54 37/140/54
f 37/49/55 79/141/55 26/39/55
f 26/39/10 77/127/10 30/40/10
f 68/132/6 70/131/6 80/142/6
f 138/133/8 146/143/8 66/112/8
f 68/132/9 80/142/9 69/107/9
f 69/157/8 81/144/8 137/146/8
f 137/146/8 145/145/8 138/133/8
f 114/69/56 40/147/56 143/149/56
f 114/69/25 143/149/25 113/150/25
f 61/215/57 73/151/57 133/153/57
f 134/136/27 133/153/27 142/81/27
f 32/194/8 72/154/8 99/156/8
f 99/156/8 139/155/8 100/45/8
f 50/167/8 69/157/8 129/158/8
f 129/158/8 137/146/8 130/110/8
f 143/149/58 82/148/58 135/160/58
f 143/149/29 135/160/29 144/139/29
f 123/164/59 55/161/59 133/163/59
f 124/89/31 123/164/31 134/120/31
f 72/154/8 60/165/8 139/155/8
f 139/155/8 131/166/8 140/135/8
f 51/169/8 50/167/8 127/168/8
f 128/108/8 127/168/8 130/110/8
f 52/171/8 51/169/8 125/170/8
f 125/170/8 127/168/8 126/105/8
f 60/165/8 52/171/8 131/166/8
f 131/166/8 125/170/8 132/117/8
f 121/173/32 54/172/32 123/164/32
f 122/87/5 121/173/5 124/89/5
f 53/175/32 54/172/32 119/174/32
f 120/85/5 119/174/5 122/87/5
f 70/216/60 53/175/60 135/176/60
f 135/176/34 119/174/34 136/84/34
f 73/151/61 39/76/61 141/152/61
f 142/81/36 141/152/36 117/82/36
f 23/217/62 104/177/62 22/77/62
f 116/178/38 104/177/38 115/179/38
f 38/83/39 117/82/39 17/80/39
f 117/82/40 118/75/40 115/179/40
f 24/218/63 21/71/63 106/180/63
f 106/180/42 112/70/42 105/72/42
f 37/140/64 18/74/64 113/150/64
f 113/150/44 111/73/44 114/69/44
f 8/4/2 84/181/2 34/183/2
f 84/181/2 83/184/2 110/182/2
f 2/10/4 88/185/4 36/187/4
f 88/185/4 87/188/4 108/186/4
f 1/219/5 20/189/5 89/191/5
f 89/191/5 103/190/5 90/56/5
f 81/144/8 31/192/8 145/145/8
f 145/145/8 101/193/8 146/143/8
f 16/220/8 32/194/8 97/195/8
f 97/195/8 99/156/8 98/196/8
f 15/221/2 11/197/2 96/199/2
f 92/198/2 91/18/2 96/199/2
f 31/192/8 15/200/8 101/193/8
f 101/193/8 96/201/8 102/46/8
f 36/187/4 108/186/4 9/203/4
f 108/186/4 107/64/4 94/202/4
f 13/222/4 9/203/4 98/204/4
f 98/204/4 94/202/4 97/21/4
f 34/183/2 110/182/2 11/197/2
f 110/182/2 109/68/2 92/198/2
f 105/223/5 19/205/5 86/207/5
f 105/223/5 86/207/5 106/208/5
f 5/5/4 6/63/4 90/6/4
f 87/188/4 88/185/4 90/6/4
f 3/11/2 4/67/2 86/12/2
f 83/184/2 84/181/2 86/12/2
