# Blender v2.76 (sub 0) OBJ File: 'bark3.blend'
# www.blender.org
mtllib grassPlant.mtl
o Plane_Plane.003
v -1.007913 -0.019502 0.007996
v 0.992087 -0.019502 0.007996
v -1.007913 1.980498 0.007996
v 0.992087 1.980498 0.007996
v -0.007913 -0.019502 1.007996
v -0.007913 -0.019502 -0.992004
v -0.007914 1.980498 1.007996
v -0.007913 1.980498 -0.992004
vt 0.999900 0.000100
vt 0.999900 0.999900
vt 0.000100 0.999900
vt 0.000100 0.000100
vn 0.000000 0.000000 1.000000
vn 1.000000 0.000000 0.000000
usemtl Material.004
s off
f 2/1/1 4/2/1 3/3/1
f 6/1/2 8/2/2 7/3/2
f 1/4/1 2/1/1 3/3/1
f 5/4/2 6/1/2 7/3/2
