# Blender v2.76 (sub 0) OBJ File: ''
# www.blender.org
mtllib human3.mtl
o human:Low-Poly
v 0.149700 17.604898 1.313400
v 0.148000 17.593298 1.379000
v 0.169000 17.590298 1.443500
v 0.211900 17.597998 1.494500
v 0.267500 17.614298 1.527100
v 0.298400 17.624798 1.533200
v 0.235400 17.522598 1.292600
v 0.239200 17.503597 1.357100
v 0.253600 17.507998 1.422700
v 0.275400 17.535398 1.479100
v 0.302700 17.580297 1.517400
v 0.315400 17.607698 1.529800
v 0.355100 17.522598 1.275300
v 0.370400 17.504498 1.338900
v 0.374600 17.507998 1.405700
v 0.365400 17.535398 1.465200
v 0.351900 17.580297 1.510900
v 0.341400 17.607698 1.525600
v 0.442900 17.605999 1.271500
v 0.463800 17.593298 1.335100
v 0.458900 17.590298 1.401600
v 0.434300 17.598198 1.463500
v 0.387300 17.614298 1.510100
v 0.359400 17.624798 1.524700
v 0.443900 17.721397 1.285100
v 0.465800 17.718199 1.349700
v 0.462100 17.705898 1.415200
v 0.435500 17.685799 1.473500
v 0.388300 17.661299 1.515600
v 0.359400 17.648897 1.528000
v 0.359400 17.801598 1.307000
v 0.374900 17.804998 1.373600
v 0.378800 17.786798 1.438100
v 0.370900 17.748098 1.490000
v 0.354100 17.695599 1.524500
v 0.342600 17.665897 1.532400
v 0.239600 17.801598 1.323900
v 0.243400 17.804998 1.390800
v 0.257800 17.786798 1.454300
v 0.278700 17.748098 1.502700
v 0.304000 17.695599 1.529800
v 0.316400 17.665897 1.536600
v 0.151700 17.720499 1.325800
v 0.150200 17.718199 1.393600
v 0.170000 17.705797 1.455900
v 0.212900 17.685799 1.504600
v 0.267500 17.661299 1.532800
v 0.298400 17.648897 1.536500
v -0.165701 17.604900 1.313400
v -0.164001 17.593300 1.379000
v -0.185001 17.590300 1.443500
v -0.227901 17.598000 1.494500
v -0.283501 17.614300 1.527100
v -0.314401 17.624800 1.533201
v -0.251401 17.522600 1.292600
v -0.255201 17.503599 1.357100
v -0.269601 17.507999 1.422700
v -0.291401 17.535400 1.479100
v -0.318701 17.580299 1.517401
v -0.331401 17.607700 1.529801
v -0.371101 17.522600 1.275300
v -0.386401 17.504499 1.338900
v -0.390601 17.507999 1.405700
v -0.381401 17.535400 1.465200
v -0.367901 17.580299 1.510900
v -0.357401 17.607700 1.525600
v -0.458901 17.606001 1.271500
v -0.479801 17.593300 1.335100
v -0.474901 17.590300 1.401600
v -0.450301 17.598200 1.463500
v -0.403301 17.614300 1.510100
v -0.375401 17.624800 1.524701
v -0.459901 17.721399 1.285100
v -0.481801 17.718201 1.349700
v -0.478101 17.705900 1.415200
v -0.451501 17.685801 1.473500
v -0.404301 17.661301 1.515600
v -0.375401 17.648899 1.528000
v -0.375401 17.801600 1.307000
v -0.390901 17.805000 1.373600
v -0.394801 17.786800 1.438100
v -0.386901 17.748100 1.490000
v -0.370101 17.695601 1.524500
v -0.358601 17.665899 1.532400
v -0.255601 17.801600 1.323900
v -0.259401 17.805000 1.390800
v -0.273801 17.786800 1.454300
v -0.294701 17.748100 1.502700
v -0.320001 17.695601 1.529801
v -0.332401 17.665899 1.536600
v -0.167701 17.720501 1.325800
v -0.166201 17.718201 1.393600
v -0.186001 17.705799 1.455900
v -0.228901 17.685801 1.504601
v -0.283501 17.661301 1.532800
v -0.314401 17.648899 1.536500
vt 0.127800 0.333200
vt 0.076500 0.314600
vt 0.310300 0.088200
vt 0.034800 0.294700
vt 0.278900 0.048600
vt 0.328100 0.872000
vt 0.372100 0.787900
vt 0.612300 0.794600
vt 0.425900 0.667300
vt 0.209200 0.623700
vt 0.330200 0.565900
vt 0.131600 0.660800
vt 0.299700 0.915800
vt 0.079300 0.689700
vt 0.035100 0.715300
vt 0.945300 0.295500
vt 0.943700 0.725600
vt 0.908800 0.706300
vt 0.849500 0.672500
vt 0.868300 0.339900
vt 0.915200 0.306900
vt 0.784900 0.631100
vt 0.788600 0.377800
vt 0.663900 0.570500
vt 0.663400 0.431800
vt 0.567300 0.668100
vt 0.658400 0.873200
vt 0.696200 0.039900
vt 0.683500 0.079600
vt 0.335200 0.128500
vt 0.681300 0.912100
vt 0.622100 0.214100
vt 0.376800 0.211000
vt 0.569500 0.333700
vt 0.428200 0.331200
vt 0.664200 0.131400
vt 0.207700 0.372400
vt 0.582000 0.536600
vt 0.532200 0.586200
vt 0.333100 0.428200
vt 0.707400 0.952500
vt 0.280800 0.961300
vt 0.582200 0.465300
vt 0.532900 0.414800
vt 0.462000 0.414000
vt 0.412800 0.463800
vt 0.412400 0.534700
vt 0.461600 0.585200
vn -0.801100 -0.404900 0.440800
vn -0.916900 -0.389400 0.087200
vn -0.383500 -0.922200 -0.049100
vn -0.925500 -0.368000 -0.089000
vn -0.401200 -0.885600 -0.233700
vn -0.280200 0.823200 0.493800
vn -0.167600 0.605500 0.777900
vn 0.369900 0.604100 0.705800
vn -0.038200 0.347900 0.936700
vn -0.569200 0.210400 0.794800
vn -0.290400 0.083900 0.953200
vn -0.792800 0.322200 0.517300
vn -0.354100 0.922500 0.153700
vn -0.902000 0.395300 0.173400
vn -0.913400 0.406900 -0.008000
vn 0.862100 -0.358800 -0.357800
vn 0.866600 0.417000 -0.274000
vn 0.916100 0.393200 -0.078300
vn 0.903900 0.319900 0.283800
vn 0.890500 -0.408200 0.200800
vn 0.906700 -0.390300 -0.159500
vn 0.764000 0.207200 0.611000
vn 0.756100 -0.363600 0.544100
vn 0.542100 0.074000 0.837000
vn 0.530400 -0.286700 0.797800
vn 0.289800 0.338700 0.895100
vn 0.407300 0.821000 0.400000
vn 0.320000 -0.887200 -0.332200
vn 0.363200 -0.919100 -0.152500
vn -0.305300 -0.900300 0.310100
vn 0.382900 0.922300 0.052000
vn 0.339500 -0.755000 0.561000
vn -0.187600 -0.753300 0.630300
vn 0.288500 -0.538200 0.791900
vn -0.048000 -0.537400 0.841900
vn 0.386500 -0.897300 0.213200
vn -0.575300 -0.364300 0.732300
vn 0.301500 -0.052600 0.952000
vn 0.209600 0.073200 0.975000
vn -0.292800 -0.289400 0.911300
vn 0.340800 0.931500 -0.127000
vn -0.364900 0.930700 -0.026600
vn 0.298600 -0.188900 0.935500
vn 0.206300 -0.277900 0.938200
vn 0.054900 -0.271400 0.960900
vn -0.024500 -0.193900 0.980700
vn -0.028400 -0.042200 0.998700
vn 0.053700 0.083600 0.995000
vn 0.383500 -0.922200 -0.049100
vn 0.916900 -0.389400 0.087100
vn 0.801100 -0.404900 0.440800
vn 0.401200 -0.885600 -0.233700
vn 0.925500 -0.368000 -0.089100
vn -0.369900 0.604100 0.705800
vn 0.167600 0.605500 0.777900
vn 0.280200 0.823200 0.493800
vn -0.289800 0.338600 0.895100
vn 0.038200 0.347900 0.936700
vn 0.290400 0.083900 0.953200
vn 0.569200 0.210400 0.794800
vn 0.354100 0.922500 0.153700
vn 0.792800 0.322200 0.517300
vn 0.902000 0.395300 0.173400
vn 0.913400 0.406900 -0.008000
vn -0.862100 -0.358800 -0.357700
vn -0.906700 -0.390300 -0.159500
vn -0.916100 0.393200 -0.078300
vn -0.903900 0.319900 0.283800
vn -0.890500 -0.408200 0.200800
vn -0.756100 -0.363600 0.544100
vn -0.764000 0.207200 0.611000
vn -0.530400 -0.286700 0.797800
vn -0.542100 0.074000 0.837000
vn -0.407300 0.821000 0.400100
vn -0.363200 -0.919100 -0.152500
vn -0.320000 -0.887200 -0.332200
vn 0.305300 -0.900300 0.310000
vn -0.382900 0.922300 0.052000
vn -0.340800 0.931500 -0.127000
vn -0.866600 0.417000 -0.274000
vn -0.339500 -0.755000 0.561000
vn -0.386500 -0.897300 0.213200
vn 0.048100 -0.537400 0.841900
vn -0.288500 -0.538200 0.791900
vn 0.575300 -0.364300 0.732300
vn 0.292800 -0.289400 0.911300
vn -0.301500 -0.052600 0.952000
vn -0.209500 0.073200 0.975000
vn 0.187600 -0.753300 0.630300
vn -0.298600 -0.188900 0.935500
vn -0.206300 -0.277900 0.938200
vn -0.054900 -0.271400 0.960900
vn 0.024500 -0.193900 0.980700
vn 0.028400 -0.042200 0.998700
vn -0.053700 0.083600 0.995000
vn 0.364900 0.930700 -0.026600
usemtl human:Low-Poly:Eyeblue
s 1
f 3/1/1 2/2/2 8/3/3
f 2/2/2 1/4/4 7/5/5
f 39/6/6 40/7/7 34/8/8
f 34/8/8 40/7/7 41/9/9
f 40/7/7 46/10/10 47/11/11
f 39/6/6 45/12/12 46/10/10
f 38/13/13 44/14/14 45/12/12
f 43/15/15 44/14/14 38/13/13
f 19/16/16 25/17/17 26/18/18
f 27/19/19 21/20/20 20/21/21
f 27/19/19 28/22/22 22/23/23
f 28/22/22 29/24/24 23/25/25
f 34/8/8 35/26/26 29/24/24
f 33/27/27 34/8/8 28/22/22
f 13/28/28 14/29/29 8/3/3
f 9/30/30 8/3/3 14/29/29
f 32/31/31 33/27/27 27/19/19
f 32/31/31 26/18/18 25/17/17
f 16/32/32 10/33/33 9/30/30
f 16/32/32 17/34/34 11/35/35
f 2/2/2 44/14/14 43/15/15
f 45/12/12 44/14/14 2/2/2
f 16/32/32 22/23/23 23/25/25
f 22/23/23 16/32/32 15/36/36
f 46/10/10 45/12/12 3/1/1
f 47/11/11 46/10/10 4/37/37
f 21/20/20 15/36/36 14/29/29
f 19/16/16 20/21/21 14/29/29
f 30/38/38 29/24/24 35/26/26
f 36/39/39 35/26/26 41/9/9
f 10/33/33 11/35/35 5/40/40
f 9/30/30 10/33/33 4/37/37
f 31/41/41 37/42/42 38/13/13
f 32/31/31 38/13/13 39/6/6
f 29/24/24 30/38/38 24/43/43
f 24/43/43 18/44/44 17/34/34
f 18/44/44 12/45/45 11/35/35
f 11/35/35 12/45/45 6/46/46
f 48/47/47 47/11/11 5/40/40
f 48/47/47 42/48/48 41/9/9
f 42/48/48 48/47/47 30/38/38
f 6/46/46 24/43/43 30/38/38
f 6/46/46 12/45/45 18/44/44
f 56/3/49 50/2/50 51/1/51
f 55/5/52 49/4/53 50/2/50
f 82/8/54 88/7/55 87/6/56
f 82/8/54 83/26/57 89/9/58
f 88/7/55 89/9/58 95/11/59
f 87/6/56 88/7/55 94/10/60
f 86/13/61 87/6/56 93/12/62
f 86/13/61 92/14/63 91/15/64
f 67/16/65 68/21/66 74/18/67
f 75/19/68 74/18/67 68/21/66
f 75/19/68 69/20/69 70/23/70
f 76/22/71 70/23/70 71/25/72
f 82/8/54 76/22/71 77/24/73
f 81/27/74 75/19/68 76/22/71
f 56/3/49 62/29/75 61/28/76
f 62/29/75 56/3/49 57/30/77
f 80/31/78 74/18/67 75/19/68
f 80/31/78 79/41/79 73/17/80
f 64/32/81 63/36/82 57/30/77
f 59/35/83 65/34/84 64/32/81
f 50/2/50 49/4/53 91/15/64
f 50/2/50 92/14/63 93/12/62
f 64/32/81 65/34/84 71/25/72
f 70/23/70 69/20/69 63/36/82
f 94/10/60 52/37/85 51/1/51
f 95/11/59 53/40/86 52/37/85
f 69/20/69 68/21/66 62/29/75
f 62/29/75 68/21/66 67/16/65
f 83/26/57 77/24/73 78/38/87
f 89/9/58 83/26/57 84/39/88
f 58/33/89 52/37/85 53/40/86
f 57/30/77 51/1/51 52/37/85
f 79/41/79 80/31/78 86/13/61
f 80/31/78 81/27/74 87/6/56
f 77/24/73 71/25/72 72/43/90
f 65/34/84 66/44/91 72/43/90
f 59/35/83 60/45/92 66/44/91
f 59/35/83 53/40/86 54/46/93
f 53/40/86 95/11/59 96/47/94
f 96/47/94 95/11/59 89/9/58
f 90/48/95 84/39/88 78/38/87
f 78/38/87 72/43/90 54/46/93
f 54/46/93 72/43/90 66/44/91
f 9/30/30 3/1/1 8/3/3
f 8/3/3 2/2/2 7/5/5
f 33/27/27 39/6/6 34/8/8
f 35/26/26 34/8/8 41/9/9
f 41/9/9 40/7/7 47/11/11
f 40/7/7 39/6/6 46/10/10
f 39/6/6 38/13/13 45/12/12
f 37/42/42 43/15/15 38/13/13
f 20/21/21 19/16/16 26/18/18
f 26/18/18 27/19/19 20/21/21
f 21/20/20 27/19/19 22/23/23
f 22/23/23 28/22/22 23/25/25
f 28/22/22 34/8/8 29/24/24
f 27/19/19 33/27/27 28/22/22
f 7/5/5 13/28/28 8/3/3
f 15/36/36 9/30/30 14/29/29
f 26/18/18 32/31/31 27/19/19
f 31/41/41 32/31/31 25/17/17
f 15/36/36 16/32/32 9/30/30
f 10/33/33 16/32/32 11/35/35
f 1/4/4 2/2/2 43/15/15
f 3/1/1 45/12/12 2/2/2
f 17/34/34 16/32/32 23/25/25
f 21/20/20 22/23/23 15/36/36
f 4/37/37 46/10/10 3/1/1
f 5/40/40 47/11/11 4/37/37
f 20/21/21 21/20/20 14/29/29
f 13/28/28 19/16/16 14/29/29
f 36/39/39 30/38/38 35/26/26
f 42/48/48 36/39/39 41/9/9
f 4/37/37 10/33/33 5/40/40
f 3/1/1 9/30/30 4/37/37
f 32/31/31 31/41/41 38/13/13
f 33/27/27 32/31/31 39/6/6
f 23/25/25 29/24/24 24/43/43
f 23/25/25 24/43/43 17/34/34
f 17/34/34 18/44/44 11/35/35
f 5/40/40 11/35/35 6/46/46
f 6/46/46 48/47/47 5/40/40
f 47/11/11 48/47/47 41/9/9
f 36/39/39 42/48/48 30/38/38
f 48/47/47 6/46/46 30/38/38
f 24/43/43 6/46/46 18/44/44
f 57/30/77 56/3/49 51/1/51
f 56/3/49 55/5/52 50/2/50
f 81/27/74 82/8/54 87/6/56
f 88/7/55 82/8/54 89/9/58
f 94/10/60 88/7/55 95/11/59
f 93/12/62 87/6/56 94/10/60
f 92/14/63 86/13/61 93/12/62
f 85/42/96 86/13/61 91/15/64
f 73/17/80 67/16/65 74/18/67
f 69/20/69 75/19/68 68/21/66
f 76/22/71 75/19/68 70/23/70
f 77/24/73 76/22/71 71/25/72
f 83/26/57 82/8/54 77/24/73
f 82/8/54 81/27/74 76/22/71
f 55/5/52 56/3/49 61/28/76
f 63/36/82 62/29/75 57/30/77
f 81/27/74 80/31/78 75/19/68
f 74/18/67 80/31/78 73/17/80
f 58/33/89 64/32/81 57/30/77
f 58/33/89 59/35/83 64/32/81
f 92/14/63 50/2/50 91/15/64
f 51/1/51 50/2/50 93/12/62
f 70/23/70 64/32/81 71/25/72
f 64/32/81 70/23/70 63/36/82
f 93/12/62 94/10/60 51/1/51
f 94/10/60 95/11/59 52/37/85
f 63/36/82 69/20/69 62/29/75
f 61/28/76 62/29/75 67/16/65
f 84/39/88 83/26/57 78/38/87
f 90/48/95 89/9/58 84/39/88
f 59/35/83 58/33/89 53/40/86
f 58/33/89 57/30/77 52/37/85
f 85/42/96 79/41/79 86/13/61
f 86/13/61 80/31/78 87/6/56
f 78/38/87 77/24/73 72/43/90
f 71/25/72 65/34/84 72/43/90
f 65/34/84 59/35/83 66/44/91
f 60/45/92 59/35/83 54/46/93
f 54/46/93 53/40/86 96/47/94
f 90/48/95 96/47/94 89/9/58
f 96/47/94 90/48/95 78/38/87
f 96/47/94 78/38/87 54/46/93
f 60/45/92 54/46/93 66/44/91
